<?xml version="1.0" encoding="utf-8"?>
<!-- Generator: Adobe Illustrator 25.2.1, SVG Export Plug-In . SVG Version: 6.00 Build 0)  -->
<svg version="1.1" id="Layer_1" xmlns="http://www.w3.org/2000/svg" xmlns:xlink="http://www.w3.org/1999/xlink" x="0px" y="0px"
	 viewBox="0 0 24 24" style="enable-background:new 0 0 24 24;" xml:space="preserve">
<style type="text/css">
	.st0{fill:#FFFFFF;fill-opacity:0.01;}
	.st1{fill:none;}
</style>
<rect y="0" class="st0" width="24" height="24"/>
<path d="M3.439,21.241c0.214,0.119,0.435,0.242,0.661,0.467c0.281,0.28,0.496,0.636,0.685,0.951
	c0.153,0.254,0.298,0.494,0.455,0.661c0.38,0.4,0.711,0.568,1.219,0.62C6.877,23.98,7.257,24,7.621,24
	c0.712,0,1.407-0.077,2.186-0.244c0.532-0.115,1.385-0.442,1.862-0.714c0.112-0.065,1.067-0.557,1.216-0.624
	c0.216-0.105,0.599-0.228,1.042-0.369c0.447-0.143,0.953-0.305,1.341-0.47c0.613-0.255,1.641-0.523,2.558-0.55
	c0.191-0.007,0.406-0.012,0.635-0.018c0.807-0.021,1.812-0.047,2.632-0.163c0.595-0.08,1.202-0.272,1.445-0.456
	c0.074-0.058,0.095-0.157,0.1-0.229c0.013-0.205-0.085-0.45-0.243-0.611c-0.03-0.03-0.058-0.06-0.086-0.09
	c-0.182-0.195-0.354-0.38-1.194-0.574c-0.311-0.073-0.608-0.108-0.907-0.108c-0.69,0-1.303,0.194-1.952,0.4
	c-0.154,0.049-0.311,0.099-0.472,0.147c-0.554,0.173-1.117,0.257-1.72,0.257c-0.43,0-0.834-0.043-1.174-0.085
	c-0.695-0.088-1.472-0.919-1.677-1.575c-0.215-0.659-0.255-1.24-0.132-1.883c0.116-0.604,0.346-1.057,0.568-1.494
	c0.06-0.119,0.12-0.236,0.177-0.356c0.276-0.592,1.298-1.881,1.656-2.267c0.595-0.647,1.016-1.124,1.424-1.584l0.18-0.203
	c0.167-0.191,0.333-0.401,0.526-0.645c0.252-0.319,0.537-0.681,0.906-1.101c0.429-0.481,0.674-0.789,0.984-1.179
	c0.114-0.143,0.237-0.298,0.382-0.478c0.241-0.311,0.649-1.006,0.715-1.324c0.067-0.304-0.05-0.61-0.197-0.721
	c-0.083-0.06-0.203-0.094-0.336-0.094c-0.187,0-0.368,0.066-0.497,0.181C19.096,5.199,18.737,5.7,18.357,6.23
	c-0.241,0.336-0.489,0.683-0.769,1.006c-0.341,0.401-0.681,0.761-1.009,1.108c-0.234,0.248-0.456,0.483-0.659,0.712
	c-0.315,0.352-0.598,0.683-0.865,0.994c-0.368,0.429-0.715,0.835-1.069,1.207c-0.375,0.393-0.802,0.61-1.204,0.61
	c-0.238,0-0.451-0.078-0.599-0.219c-0.385-0.363-0.194-1.146-0.048-1.448c0.091-0.191,0.191-0.387,0.415-0.827l0.392-0.773
	c0.302-0.6,0.681-1.499,1.159-2.746C14.274,5.4,14.505,4.88,14.748,4.33c0.248-0.56,0.529-1.195,0.801-1.877
	c0.343-0.862,0.205-1.384-0.084-1.52c-0.44-0.208-0.835-0.054-1.099,0.452c-0.359,0.692-0.577,1.173-1.738,3.97
	c-0.058,0.141-0.201,0.416-0.383,0.764c-0.238,0.459-0.535,1.03-0.8,1.6c-0.169,0.362-0.325,0.747-0.462,1.086
	c-0.301,0.744-0.519,1.282-0.778,1.441c-0.491,0.299-0.973,0.219-1.151-0.189C8.872,9.64,8.957,8.94,9.057,8.13
	c0.041-0.338,0.085-0.688,0.11-1.038c0.098-1.272,0.216-2.03,0.307-2.547c0.062-0.352,0.219-1.003,0.371-1.634
	c0.145-0.603,0.296-1.226,0.36-1.577c0.073-0.413,0.033-0.895-0.089-1.097C10.061,0.144,9.888,0,9.649,0
	C9.519,0,9.39,0.043,9.265,0.128C9.048,0.267,8.862,0.641,8.711,1.241C8.522,2.002,8.421,2.49,8.313,3.006
	C8.204,3.529,8.091,4.069,7.877,4.958C7.84,5.116,7.795,5.294,7.744,5.493C7.591,6.098,7.381,6.926,7.185,8.015
	c-0.053,0.3-0.089,0.626-0.127,0.971c-0.053,0.482-0.107,0.98-0.217,1.513c-0.069,0.319-0.438,0.577-0.62,0.645
	c-0.127,0.049-0.246,0.096-0.386,0.096c-0.179,0-0.356-0.075-0.572-0.244c-0.341-0.264-1.054-1.778-1.324-2.482
	C3.71,7.933,3.471,7.307,3.274,6.674C3.162,6.309,3.08,5.993,2.994,5.658c-0.119-0.462-0.242-0.94-0.462-1.617
	c-0.104-0.323-0.42-0.437-0.659-0.437c-0.057,0-0.111,0.007-0.152,0.019C1.557,3.671,1.342,3.787,1.362,4.241
	C1.394,4.954,1.64,5.967,1.689,6.163c0.248,0.971,0.427,1.504,0.676,2.241l0.216,0.64c0.207,0.609,0.421,1.239,0.6,1.965
	c0.167,0.681,0.263,1.686,0.033,2.46l-0.1,0.328c-0.228,0.747-0.572,1.876-0.816,2.965c-0.106,0.453-0.281,1.442-0.264,2.284
	c0.018,0.782,0.196,1.211,0.707,1.702C2.994,20.993,3.22,21.119,3.439,21.241z"/>
<rect y="0" class="st1" width="24" height="24"/>
</svg>
