<svg version="1.1" xmlns="http://www.w3.org/2000/svg" xmlns:xlink="http://www.w3.org/1999/xlink">
    <symbol id="reagents" viewBox="0 0 56 55">
        <path d="M5 13C4.73478 13 4.48043 13.1054 4.29289 13.2929C4.10536 13.4804 4 13.7348 4 14V18C4 18.2652 4.10536 18.5196 4.29289 18.7071C4.48043 18.8946 4.73478 19 5 19C5.26522 19 5.51957 18.8946 5.70711 18.7071C5.89464 18.5196 6 18.2652 6 18V14C6 13.7348 5.89464 13.4804 5.70711 13.2929C5.51957 13.1054 5.26522 13 5 13Z"/>
        <path d="M13 13C12.7348 13 12.4804 13.1054 12.2929 13.2929C12.1054 13.4804 12 13.7348 12 14V18C12 18.2652 12.1054 18.5196 12.2929 18.7071C12.4804 18.8946 12.7348 19 13 19C13.2652 19 13.5196 18.8946 13.7071 18.7071C13.8946 18.5196 14 18.2652 14 18V14C14 13.7348 13.8946 13.4804 13.7071 13.2929C13.5196 13.1054 13.2652 13 13 13Z"/>
        <path d="M9 13C8.73478 13 8.48043 13.1054 8.29289 13.2929C8.10536 13.4804 8 13.7348 8 14V18C8 18.2652 8.10536 18.5196 8.29289 18.7071C8.48043 18.8946 8.73478 19 9 19C9.26522 19 9.51957 18.8946 9.70711 18.7071C9.89464 18.5196 10 18.2652 10 18V14C10 13.7348 9.89464 13.4804 9.70711 13.2929C9.51957 13.1054 9.26522 13 9 13Z"/>
        <path d="M17 13C16.7348 13 16.4804 13.1054 16.2929 13.2929C16.1054 13.4804 16 13.7348 16 14V18C16 18.2652 16.1054 18.5196 16.2929 18.7071C16.4804 18.8946 16.7348 19 17 19C17.2652 19 17.5196 18.8946 17.7071 18.7071C17.8946 18.5196 18 18.2652 18 18V14C18 13.7348 17.8946 13.4804 17.7071 13.2929C17.5196 13.1054 17.2652 13 17 13Z"/>
        <path d="M21 13C20.7348 13 20.4804 13.1054 20.2929 13.2929C20.1054 13.4804 20 13.7348 20 14V18C20 18.2652 20.1054 18.5196 20.2929 18.7071C20.4804 18.8946 20.7348 19 21 19C21.2652 19 21.5196 18.8946 21.7071 18.7071C21.8946 18.5196 22 18.2652 22 18V14C22 13.7348 21.8946 13.4804 21.7071 13.2929C21.5196 13.1054 21.2652 13 21 13Z"/>
        <path d="M25 13C24.7348 13 24.4804 13.1054 24.2929 13.2929C24.1054 13.4804 24 13.7348 24 14V18C24 18.2652 24.1054 18.5196 24.2929 18.7071C24.4804 18.8946 24.7348 19 25 19C25.2652 19 25.5196 18.8946 25.7071 18.7071C25.8946 18.5196 26 18.2652 26 18V14C26 13.7348 25.8946 13.4804 25.7071 13.2929C25.5196 13.1054 25.2652 13 25 13Z"/>
        <path d="M21 31H9C8.20435 31 7.44129 31.3161 6.87868 31.8787C6.31607 32.4413 6 33.2044 6 34V46C6 46.7956 6.31607 47.5587 6.87868 48.1213C7.44129 48.6839 8.20435 49 9 49H21C21.7956 49 22.5587 48.6839 23.1213 48.1213C23.6839 47.5587 24 46.7956 24 46V34C24 33.2044 23.6839 32.4413 23.1213 31.8787C22.5587 31.3161 21.7956 31 21 31ZM22 46C22 46.2652 21.8946 46.5196 21.7071 46.7071C21.5196 46.8946 21.2652 47 21 47H9C8.73478 47 8.48043 46.8946 8.29289 46.7071C8.10536 46.5196 8 46.2652 8 46V34C8 33.7348 8.10536 33.4804 8.29289 33.2929C8.48043 33.1054 8.73478 33 9 33H21C21.2652 33 21.5196 33.1054 21.7071 33.2929C21.8946 33.4804 22 33.7348 22 34V46Z"/>
        <path d="M53 14C53.7957 14 54.5587 13.6839 55.1213 13.1213C55.6839 12.5587 56 11.7956 56 11V3C56 2.20435 55.6839 1.44129 55.1213 0.87868C54.5587 0.316071 53.7957 0 53 0H29C28.2044 0 27.4413 0.316071 26.8787 0.87868C26.3161 1.44129 26 2.20435 26 3V9H3C2.20435 9 1.44129 9.31607 0.87868 9.87868C0.316071 10.4413 0 11.2044 0 12V20C0 20.7956 0.316071 21.5587 0.87868 22.1213C1.44129 22.6839 2.20435 23 3 23H8V24C8 24.2652 7.89464 24.5196 7.70711 24.7071C7.51957 24.8946 7.26522 25 7 25H5C3.67392 25 2.40215 25.5268 1.46447 26.4645C0.526784 27.4021 0 28.6739 0 30V50C0 51.3261 0.526784 52.5979 1.46447 53.5355C2.40215 54.4732 3.67392 55 5 55H25C26.3261 55 27.5979 54.4732 28.5355 53.5355C29.4732 52.5979 30 51.3261 30 50V46H51C52.3261 46 53.5979 45.4732 54.5355 44.5355C55.4732 43.5979 56 42.3261 56 41V21C56 19.6739 55.4732 18.4021 54.5355 17.4645C53.5979 16.5268 52.3261 16 51 16H49C48.7348 16 48.4804 15.8946 48.2929 15.7071C48.1054 15.5196 48 15.2652 48 15V14H53ZM28 3C28 2.73478 28.1054 2.48043 28.2929 2.29289C28.4804 2.10536 28.7348 2 29 2H53C53.2652 2 53.5196 2.10536 53.7071 2.29289C53.8946 2.48043 54 2.73478 54 3V11C54 11.2652 53.8946 11.5196 53.7071 11.7071C53.5196 11.8946 53.2652 12 53 12H30C30.0003 11.3793 29.8081 10.7739 29.4499 10.267C29.0917 9.76016 28.5852 9.37688 28 9.17C28.0091 9.1137 28.0091 9.0563 28 9V3ZM30 14H34V15C34 15.2652 33.8946 15.5196 33.7071 15.7071C33.5196 15.8946 33.2652 16 33 16H30V14ZM3 21C2.73478 21 2.48043 20.8946 2.29289 20.7071C2.10536 20.5196 2 20.2652 2 20V12C2 11.7348 2.10536 11.4804 2.29289 11.2929C2.48043 11.1054 2.73478 11 3 11H27C27.2652 11 27.5196 11.1054 27.7071 11.2929C27.8946 11.4804 28 11.7348 28 12V20C28 20.2652 27.8946 20.5196 27.7071 20.7071C27.5196 20.8946 27.2652 21 27 21H3ZM25 25H23C22.7348 25 22.4804 24.8946 22.2929 24.7071C22.1054 24.5196 22 24.2652 22 24V23H26V25.1C25.6704 25.0361 25.3357 25.0026 25 25ZM28 50C28 50.7957 27.6839 51.5587 27.1213 52.1213C26.5587 52.6839 25.7956 53 25 53H5C4.20435 53 3.44129 52.6839 2.87868 52.1213C2.31607 51.5587 2 50.7957 2 50V30C2 29.2044 2.31607 28.4413 2.87868 27.8787C3.44129 27.3161 4.20435 27 5 27H7C7.79565 27 8.55871 26.6839 9.12132 26.1213C9.68393 25.5587 10 24.7956 10 24V23H20V24C20 24.7956 20.3161 25.5587 20.8787 26.1213C21.4413 26.6839 22.2044 27 23 27H25C25.7956 27 26.5587 27.3161 27.1213 27.8787C27.6839 28.4413 28 29.2044 28 30V50ZM49 18H51C51.7957 18 52.5587 18.3161 53.1213 18.8787C53.6839 19.4413 54 20.2044 54 21V41C54 41.7957 53.6839 42.5587 53.1213 43.1213C52.5587 43.6839 51.7957 44 51 44H30V30C30 29.2238 29.8193 28.4582 29.4721 27.7639C29.125 27.0697 28.621 26.4657 28 26V22.8C28.5804 22.5948 29.0836 22.2161 29.4413 21.7152C29.7991 21.2143 29.9942 20.6155 30 20V18H33C33.7957 18 34.5587 17.6839 35.1213 17.1213C35.6839 16.5587 36 15.7956 36 15V14H46V15C46 15.7956 46.3161 16.5587 46.8787 17.1213C47.4413 17.6839 48.2043 18 49 18Z"/>
        <path d="M31 10C31.2652 10 31.5196 9.89464 31.7071 9.70711C31.8946 9.51957 32 9.26522 32 9V5C32 4.73478 31.8946 4.48043 31.7071 4.29289C31.5196 4.10536 31.2652 4 31 4C30.7348 4 30.4804 4.10536 30.2929 4.29289C30.1054 4.48043 30 4.73478 30 5V9C30 9.26522 30.1054 9.51957 30.2929 9.70711C30.4804 9.89464 30.7348 10 31 10Z"/>
        <path d="M39 10C39.2652 10 39.5196 9.89464 39.7071 9.70711C39.8946 9.51957 40 9.26522 40 9V5C40 4.73478 39.8946 4.48043 39.7071 4.29289C39.5196 4.10536 39.2652 4 39 4C38.7348 4 38.4804 4.10536 38.2929 4.29289C38.1054 4.48043 38 4.73478 38 5V9C38 9.26522 38.1054 9.51957 38.2929 9.70711C38.4804 9.89464 38.7348 10 39 10Z"/>
        <path d="M35 10C35.2652 10 35.5196 9.89464 35.7071 9.70711C35.8946 9.51957 36 9.26522 36 9V5C36 4.73478 35.8946 4.48043 35.7071 4.29289C35.5196 4.10536 35.2652 4 35 4C34.7348 4 34.4804 4.10536 34.2929 4.29289C34.1054 4.48043 34 4.73478 34 5V9C34 9.26522 34.1054 9.51957 34.2929 9.70711C34.4804 9.89464 34.7348 10 35 10Z"/>
        <path d="M43 10C43.2652 10 43.5196 9.89464 43.7071 9.70711C43.8946 9.51957 44 9.26522 44 9V5C44 4.73478 43.8946 4.48043 43.7071 4.29289C43.5196 4.10536 43.2652 4 43 4C42.7348 4 42.4804 4.10536 42.2929 4.29289C42.1054 4.48043 42 4.73478 42 5V9C42 9.26522 42.1054 9.51957 42.2929 9.70711C42.4804 9.89464 42.7348 10 43 10Z"/>
        <path d="M47 10C47.2652 10 47.5196 9.89464 47.7071 9.70711C47.8946 9.51957 48 9.26522 48 9V5C48 4.73478 47.8946 4.48043 47.7071 4.29289C47.5196 4.10536 47.2652 4 47 4C46.7348 4 46.4804 4.10536 46.2929 4.29289C46.1054 4.48043 46 4.73478 46 5V9C46 9.26522 46.1054 9.51957 46.2929 9.70711C46.4804 9.89464 46.7348 10 47 10Z"/>
        <path d="M51 10C51.2652 10 51.5196 9.89464 51.7071 9.70711C51.8946 9.51957 52 9.26522 52 9V5C52 4.73478 51.8946 4.48043 51.7071 4.29289C51.5196 4.10536 51.2652 4 51 4C50.7348 4 50.4804 4.10536 50.2929 4.29289C50.1054 4.48043 50 4.73478 50 5V9C50 9.26522 50.1054 9.51957 50.2929 9.70711C50.4804 9.89464 50.7348 10 51 10Z"/>
        <path d="M32 25V37C32 37.7956 32.3161 38.5587 32.8787 39.1213C33.4413 39.6839 34.2044 40 35 40H47C47.7956 40 48.5587 39.6839 49.1213 39.1213C49.6839 38.5587 50 37.7956 50 37V25C50 24.2044 49.6839 23.4413 49.1213 22.8787C48.5587 22.3161 47.7956 22 47 22H35C34.2044 22 33.4413 22.3161 32.8787 22.8787C32.3161 23.4413 32 24.2044 32 25ZM48 25V37C48 37.2652 47.8946 37.5196 47.7071 37.7071C47.5196 37.8946 47.2652 38 47 38H35C34.7348 38 34.4804 37.8946 34.2929 37.7071C34.1054 37.5196 34 37.2652 34 37V25C34 24.7348 34.1054 24.4804 34.2929 24.2929C34.4804 24.1054 34.7348 24 35 24H47C47.2652 24 47.5196 24.1054 47.7071 24.2929C47.8946 24.4804 48 24.7348 48 25Z"/>
    </symbol>

    <symbol id="analisator" viewBox="0 0 60 48">
        <path d="M55 0H5C3.67392 0 2.40215 0.526784 1.46447 1.46447C0.526784 2.40215 0 3.67392 0 5L0 43C0 44.3261 0.526784 45.5979 1.46447 46.5355C2.40215 47.4732 3.67392 48 5 48H55C56.3261 48 57.5979 47.4732 58.5355 46.5355C59.4732 45.5979 60 44.3261 60 43V5C60 3.67392 59.4732 2.40215 58.5355 1.46447C57.5979 0.526784 56.3261 0 55 0ZM51 26H21C20.7348 26 20.4804 26.1054 20.2929 26.2929C20.1054 26.4804 20 26.7348 20 27V36.06H2V12H58V36H52V27C52 26.7348 51.8946 26.4804 51.7071 26.2929C51.5196 26.1054 51.2652 26 51 26ZM46 36V28H50V36H46ZM40 36V28H44V36H40ZM5 2H55C55.7957 2 56.5587 2.31607 57.1213 2.87868C57.6839 3.44129 58 4.20435 58 5V10H2V5C2 4.20435 2.31607 3.44129 2.87868 2.87868C3.44129 2.31607 4.20435 2 5 2ZM2 43V38.06H20V46H5C4.20435 46 3.44129 45.6839 2.87868 45.1213C2.31607 44.5587 2 43.7957 2 43ZM55 46H22V28H38V37C38 37.2652 38.1054 37.5196 38.2929 37.7071C38.4804 37.8946 38.7348 38 39 38H58V43C58 43.7957 57.6839 44.5587 57.1213 45.1213C56.5587 45.6839 55.7957 46 55 46Z"/>
    </symbol>

    <symbol id="phase" viewBox="0 0 60 60">
        <path d="M52.58 50.87L40 24.77V8H43C43.7957 8 44.5587 7.68393 45.1213 7.12132C45.6839 6.55871 46 5.79565 46 5V3C46 2.20435 45.6839 1.44129 45.1213 0.87868C44.5587 0.31607 43.7957 0 43 0L17 0C16.2044 0 15.4413 0.31607 14.8787 0.87868C14.3161 1.44129 14 2.20435 14 3V5C14 5.79565 14.3161 6.55871 14.8787 7.12132C15.4413 7.68393 16.2044 8 17 8H20V24.77L7.42001 50.87C6.86385 51.7796 6.56008 52.8209 6.53998 53.8869C6.51987 54.9528 6.78416 56.0049 7.30563 56.9348C7.82711 57.8647 8.58694 58.6388 9.50694 59.1776C10.4269 59.7163 11.4739 60.0002 12.54 60H47.46C48.5261 60.0002 49.5731 59.7163 50.4931 59.1776C51.4131 58.6388 52.1729 57.8647 52.6944 56.9348C53.2159 56.0049 53.4802 54.9528 53.4601 53.8869C53.4399 52.8209 53.1362 51.7796 52.58 50.87ZM16 5V3C16 2.73478 16.1054 2.48043 16.2929 2.29289C16.4804 2.10536 16.7348 2 17 2H43C43.2652 2 43.5196 2.10536 43.7071 2.29289C43.8947 2.48043 44 2.73478 44 3V5C44 5.26522 43.8947 5.51957 43.7071 5.70711C43.5196 5.89464 43.2652 6 43 6H17C16.7348 6 16.4804 5.89464 16.2929 5.70711C16.1054 5.51957 16 5.26522 16 5ZM51 55.94C50.6555 56.5749 50.1431 57.1028 49.5187 57.4661C48.8944 57.8294 48.1822 58.0141 47.46 58H12.54C11.8262 57.9996 11.1254 57.8083 10.5105 57.4457C9.89555 57.0832 9.38885 56.5627 9.04295 55.9382C8.69705 55.3138 8.52457 54.6081 8.5434 53.8945C8.56222 53.1809 8.77167 52.4853 9.15001 51.88C9.15332 51.8501 9.15332 51.8199 9.15001 51.79L21.9 25.43C21.9681 25.297 22.0025 25.1494 22 25V8H38V25C37.9975 25.1494 38.0319 25.297 38.1 25.43L50.8 51.79C50.8128 51.822 50.8296 51.8522 50.85 51.88C51.2353 52.4817 51.4525 53.1756 51.4788 53.8895C51.5052 54.6035 51.3399 55.3115 51 55.94Z"/>
        <path d="M25.5 48C24.7089 48 23.9355 48.2346 23.2777 48.6741C22.6199 49.1136 22.1072 49.7384 21.8045 50.4693C21.5017 51.2002 21.4225 52.0044 21.5769 52.7804C21.7312 53.5563 22.1122 54.269 22.6716 54.8284C23.231 55.3878 23.9437 55.7688 24.7196 55.9231C25.4956 56.0775 26.2998 55.9983 27.0307 55.6955C27.7616 55.3928 28.3864 54.8801 28.8259 54.2223C29.2654 53.5645 29.5 52.7911 29.5 52C29.5 50.9391 29.0786 49.9217 28.3284 49.1716C27.5783 48.4214 26.5609 48 25.5 48ZM25.5 54C25.1044 54 24.7178 53.8827 24.3889 53.6629C24.06 53.4432 23.8036 53.1308 23.6522 52.7654C23.5009 52.3999 23.4613 51.9978 23.5384 51.6098C23.6156 51.2219 23.8061 50.8655 24.0858 50.5858C24.3655 50.3061 24.7219 50.1156 25.1098 50.0384C25.4978 49.9613 25.8999 50.0009 26.2654 50.1522C26.6308 50.3036 26.9432 50.56 27.1629 50.8889C27.3827 51.2178 27.5 51.6044 27.5 52C27.5 52.5304 27.2893 53.0391 26.9142 53.4142C26.5391 53.7893 26.0304 54 25.5 54Z"/>
        <path d="M34.5 48C33.7089 48 32.9355 48.2346 32.2777 48.6741C31.6199 49.1136 31.1072 49.7384 30.8045 50.4693C30.5017 51.2002 30.4225 52.0044 30.5769 52.7804C30.7312 53.5563 31.1122 54.269 31.6716 54.8284C32.231 55.3878 32.9437 55.7688 33.7196 55.9231C34.4956 56.0775 35.2998 55.9983 36.0307 55.6955C36.7616 55.3928 37.3864 54.8801 37.8259 54.2223C38.2654 53.5645 38.5 52.7911 38.5 52C38.5 50.9391 38.0786 49.9217 37.3284 49.1716C36.5783 48.4214 35.5609 48 34.5 48ZM34.5 54C34.1044 54 33.7178 53.8827 33.3889 53.6629C33.06 53.4432 32.8036 53.1308 32.6522 52.7654C32.5009 52.3999 32.4613 51.9978 32.5384 51.6098C32.6156 51.2219 32.8061 50.8655 33.0858 50.5858C33.3655 50.3061 33.7219 50.1156 34.1098 50.0384C34.4978 49.9613 34.8999 50.0009 35.2654 50.1522C35.6308 50.3036 35.9432 50.56 36.1629 50.8889C36.3827 51.2178 36.5 51.6044 36.5 52C36.5 52.5304 36.2893 53.0391 35.9142 53.4142C35.5391 53.7893 35.0304 54 34.5 54Z"/>
        <path d="M43.5 48C42.7089 48 41.9355 48.2346 41.2777 48.6741C40.6199 49.1136 40.1072 49.7384 39.8045 50.4693C39.5017 51.2002 39.4225 52.0044 39.5769 52.7804C39.7312 53.5563 40.1122 54.269 40.6716 54.8284C41.231 55.3878 41.9437 55.7688 42.7196 55.9231C43.4956 56.0775 44.2998 55.9983 45.0307 55.6955C45.7616 55.3928 46.3864 54.8801 46.8259 54.2223C47.2654 53.5645 47.5 52.7911 47.5 52C47.5 50.9391 47.0786 49.9217 46.3284 49.1716C45.5783 48.4214 44.5609 48 43.5 48ZM43.5 54C43.1044 54 42.7178 53.8827 42.3889 53.6629C42.06 53.4432 41.8036 53.1308 41.6522 52.7654C41.5009 52.3999 41.4613 51.9978 41.5384 51.6098C41.6156 51.2219 41.8061 50.8655 42.0858 50.5858C42.3655 50.3061 42.7219 50.1156 43.1098 50.0384C43.4978 49.9613 43.8999 50.0009 44.2654 50.1522C44.6308 50.3036 44.9432 50.56 45.1629 50.8889C45.3827 51.2178 45.5 51.6044 45.5 52C45.5 52.5304 45.2893 53.0391 44.9142 53.4142C44.5391 53.7893 44.0304 54 43.5 54Z"/>
        <path d="M16.5 48C15.7089 48 14.9355 48.2346 14.2777 48.6741C13.6199 49.1136 13.1072 49.7384 12.8045 50.4693C12.5017 51.2002 12.4225 52.0044 12.5769 52.7804C12.7312 53.5563 13.1122 54.269 13.6716 54.8284C14.231 55.3878 14.9437 55.7688 15.7196 55.9231C16.4956 56.0775 17.2998 55.9983 18.0307 55.6955C18.7616 55.3928 19.3864 54.8801 19.8259 54.2223C20.2654 53.5645 20.5 52.7911 20.5 52C20.5 50.9391 20.0786 49.9217 19.3284 49.1716C18.5783 48.4214 17.5609 48 16.5 48ZM16.5 54C16.1044 54 15.7178 53.8827 15.3889 53.6629C15.06 53.4432 14.8036 53.1308 14.6522 52.7654C14.5009 52.3999 14.4613 51.9978 14.5384 51.6098C14.6156 51.2219 14.8061 50.8655 15.0858 50.5858C15.3655 50.3061 15.7219 50.1156 16.1098 50.0384C16.4978 49.9613 16.8999 50.0009 17.2654 50.1522C17.6308 50.3036 17.9432 50.56 18.1629 50.8889C18.3827 51.2178 18.5 51.6044 18.5 52C18.5 52.5304 18.2893 53.0391 17.9142 53.4142C17.5391 53.7893 17.0304 54 16.5 54Z"/>
        <path d="M25.5 40C26.2911 40 27.0645 39.7654 27.7223 39.3259C28.3801 38.8864 28.8928 38.2616 29.1955 37.5307C29.4983 36.7998 29.5775 35.9956 29.4231 35.2196C29.2688 34.4437 28.8878 33.731 28.3284 33.1716C27.769 32.6122 27.0563 32.2312 26.2804 32.0769C25.5044 31.9225 24.7002 32.0017 23.9693 32.3045C23.2384 32.6072 22.6136 33.1199 22.1741 33.7777C21.7346 34.4355 21.5 35.2089 21.5 36C21.5 37.0609 21.9214 38.0783 22.6716 38.8284C23.4217 39.5786 24.4391 40 25.5 40ZM25.5 34C25.8956 34 26.2822 34.1173 26.6111 34.3371C26.94 34.5568 27.1964 34.8692 27.3478 35.2346C27.4991 35.6001 27.5387 36.0022 27.4616 36.3902C27.3844 36.7781 27.1939 37.1345 26.9142 37.4142C26.6345 37.6939 26.2781 37.8844 25.8902 37.9616C25.5022 38.0387 25.1001 37.9991 24.7346 37.8478C24.3692 37.6964 24.0568 37.44 23.8371 37.1111C23.6173 36.7822 23.5 36.3956 23.5 36C23.5 35.4696 23.7107 34.9609 24.0858 34.5858C24.4609 34.2107 24.9696 34 25.5 34Z"/>
        <path d="M34.5 40C35.2911 40 36.0645 39.7654 36.7223 39.3259C37.3801 38.8864 37.8928 38.2616 38.1955 37.5307C38.4983 36.7998 38.5775 35.9956 38.4231 35.2196C38.2688 34.4437 37.8878 33.731 37.3284 33.1716C36.769 32.6122 36.0563 32.2312 35.2804 32.0769C34.5044 31.9225 33.7002 32.0017 32.9693 32.3045C32.2384 32.6072 31.6136 33.1199 31.1741 33.7777C30.7346 34.4355 30.5 35.2089 30.5 36C30.5 37.0609 30.9214 38.0783 31.6716 38.8284C32.4217 39.5786 33.4391 40 34.5 40ZM34.5 34C34.8956 34 35.2822 34.1173 35.6111 34.3371C35.94 34.5568 36.1964 34.8692 36.3478 35.2346C36.4991 35.6001 36.5387 36.0022 36.4616 36.3902C36.3844 36.7781 36.1939 37.1345 35.9142 37.4142C35.6345 37.6939 35.2781 37.8844 34.8902 37.9616C34.5022 38.0387 34.1001 37.9991 33.7346 37.8478C33.3692 37.6964 33.0568 37.44 32.8371 37.1111C32.6173 36.7822 32.5 36.3956 32.5 36C32.5 35.4696 32.7107 34.9609 33.0858 34.5858C33.4609 34.2107 33.9696 34 34.5 34Z"/>
        <path d="M34 44C34 43.2089 33.7654 42.4355 33.3259 41.7777C32.8864 41.1199 32.2616 40.6072 31.5307 40.3045C30.7998 40.0017 29.9956 39.9225 29.2196 40.0769C28.4437 40.2312 27.731 40.6122 27.1716 41.1716C26.6122 41.731 26.2312 42.4437 26.0769 43.2196C25.9225 43.9956 26.0017 44.7998 26.3045 45.5307C26.6072 46.2616 27.1199 46.8864 27.7777 47.3259C28.4355 47.7654 29.2089 48 30 48C31.0609 48 32.0783 47.5786 32.8284 46.8284C33.5786 46.0783 34 45.0609 34 44ZM30 46C29.6044 46 29.2178 45.8827 28.8889 45.6629C28.56 45.4432 28.3036 45.1308 28.1522 44.7654C28.0009 44.3999 27.9613 43.9978 28.0384 43.6098C28.1156 43.2219 28.3061 42.8655 28.5858 42.5858C28.8655 42.3061 29.2219 42.1156 29.6098 42.0384C29.9978 41.9613 30.3999 42.0009 30.7654 42.1522C31.1308 42.3036 31.4432 42.56 31.6629 42.8889C31.8827 43.2178 32 43.6044 32 44C32 44.5304 31.7893 45.0391 31.4142 45.4142C31.0391 45.7893 30.5304 46 30 46Z"/>
        <path d="M43 44C43 43.2089 42.7654 42.4355 42.3259 41.7777C41.8864 41.1199 41.2616 40.6072 40.5307 40.3045C39.7998 40.0017 38.9956 39.9225 38.2196 40.0769C37.4437 40.2312 36.731 40.6122 36.1716 41.1716C35.6122 41.731 35.2312 42.4437 35.0769 43.2196C34.9225 43.9956 35.0017 44.7998 35.3045 45.5307C35.6072 46.2616 36.1199 46.8864 36.7777 47.3259C37.4355 47.7654 38.2089 48 39 48C40.0609 48 41.0783 47.5786 41.8284 46.8284C42.5786 46.0783 43 45.0609 43 44ZM39 46C38.6044 46 38.2178 45.8827 37.8889 45.6629C37.56 45.4432 37.3036 45.1308 37.1522 44.7654C37.0009 44.3999 36.9613 43.9978 37.0384 43.6098C37.1156 43.2219 37.3061 42.8655 37.5858 42.5858C37.8655 42.3061 38.2219 42.1156 38.6098 42.0384C38.9978 41.9613 39.3999 42.0009 39.7654 42.1522C40.1308 42.3036 40.4432 42.56 40.6629 42.8889C40.8827 43.2178 41 43.6044 41 44C41 44.5304 40.7893 45.0391 40.4142 45.4142C40.0391 45.7893 39.5304 46 39 46Z"/>
        <path d="M25 44C25 43.2089 24.7654 42.4355 24.3259 41.7777C23.8864 41.1199 23.2616 40.6072 22.5307 40.3045C21.7998 40.0017 20.9956 39.9225 20.2196 40.0769C19.4437 40.2312 18.731 40.6122 18.1716 41.1716C17.6122 41.731 17.2312 42.4437 17.0769 43.2196C16.9225 43.9956 17.0017 44.7998 17.3045 45.5307C17.6072 46.2616 18.1199 46.8864 18.7777 47.3259C19.4355 47.7654 20.2089 48 21 48C22.0609 48 23.0783 47.5786 23.8284 46.8284C24.5786 46.0783 25 45.0609 25 44ZM21 46C20.6044 46 20.2178 45.8827 19.8889 45.6629C19.56 45.4432 19.3036 45.1308 19.1522 44.7654C19.0009 44.3999 18.9613 43.9978 19.0384 43.6098C19.1156 43.2219 19.3061 42.8655 19.5858 42.5858C19.8655 42.3061 20.2219 42.1156 20.6098 42.0384C20.9978 41.9613 21.3999 42.0009 21.7654 42.1522C22.1308 42.3036 22.4432 42.56 22.6629 42.8889C22.8827 43.2178 23 43.6044 23 44C23 44.5304 22.7893 45.0391 22.4142 45.4142C22.0391 45.7893 21.5304 46 21 46Z"/>
    </symbol>

    <symbol id="technology" viewBox="0 0 55 57">
        <path d="M23 23C22.7348 23 22.4804 23.1054 22.2929 23.2929C22.1054 23.4804 22 23.7348 22 24V34C22 34.2652 22.1054 34.5196 22.2929 34.7071C22.4804 34.8946 22.7348 35 23 35H33C33.2652 35 33.5196 34.8946 33.7071 34.7071C33.8946 34.5196 34 34.2652 34 34V24C34 23.7348 33.8946 23.4804 33.7071 23.2929C33.5196 23.1054 33.2652 23 33 23H23ZM32 33H24V25H32V33Z"/>
        <path d="M52 45.93V44C52 43.7348 51.8946 43.4804 51.7071 43.2929C51.5196 43.1054 51.2652 43 51 43H49.07L47.71 41.64C47.617 41.5463 47.5064 41.4719 47.3846 41.4211C47.2627 41.3703 47.132 41.3442 47 41.3442C46.868 41.3442 46.7373 41.3703 46.6154 41.4211C46.4936 41.4719 46.383 41.5463 46.29 41.64L44.93 43H43.41L38 37.59V30C38 29.7348 37.8946 29.4804 37.7071 29.2929C37.5196 29.1054 37.2652 29 37 29C36.7348 29 36.4804 29.1054 36.2929 29.2929C36.1054 29.4804 36 29.7348 36 30V37H29C28.7348 37 28.4804 37.1054 28.2929 37.2929C28.1054 37.4804 28 37.7348 28 38C28 38.2652 28.1054 38.5196 28.2929 38.7071C28.4804 38.8946 28.7348 39 29 39H36.59L42 44.41V45.93L40.64 47.29C40.5463 47.383 40.4719 47.4936 40.4211 47.6154C40.3703 47.7373 40.3442 47.868 40.3442 48C40.3442 48.132 40.3703 48.2627 40.4211 48.3846C40.4719 48.5064 40.5463 48.617 40.64 48.71L42 50.07V52C42 52.2652 42.1054 52.5196 42.2929 52.7071C42.4804 52.8946 42.7348 53 43 53H44.93L46.29 54.36C46.383 54.4537 46.4936 54.5281 46.6154 54.5789C46.7373 54.6297 46.868 54.6558 47 54.6558C47.132 54.6558 47.2627 54.6297 47.3846 54.5789C47.5064 54.5281 47.617 54.4537 47.71 54.36L49.07 53H51C51.2652 53 51.5196 52.8946 51.7071 52.7071C51.8946 52.5196 52 52.2652 52 52V50.07L53.36 48.71C53.4537 48.617 53.5281 48.5064 53.5789 48.3846C53.6297 48.2627 53.6558 48.132 53.6558 48C53.6558 47.868 53.6297 47.7373 53.5789 47.6154C53.5281 47.4936 53.4537 47.383 53.36 47.29L52 45.93ZM50.29 48.93C50.1973 49.0234 50.124 49.1343 50.0742 49.2561C50.0245 49.3779 49.9992 49.5084 50 49.64V51H48.66C48.5284 50.9992 48.3979 51.0245 48.2761 51.0742C48.1543 51.124 48.0434 51.1973 47.95 51.29L46.95 52.29L45.95 51.29C45.8566 51.1973 45.7457 51.124 45.6239 51.0742C45.5021 51.0245 45.3716 50.9992 45.24 51H44V49.66C44.0008 49.5284 43.9755 49.3979 43.9258 49.2761C43.876 49.1543 43.8027 49.0434 43.71 48.95L42.71 47.95L43.71 46.95C43.8027 46.8566 43.876 46.7457 43.9258 46.6239C43.9755 46.5021 44.0008 46.3716 44 46.24V45H45.34C45.4716 45.0008 45.6021 44.9755 45.7239 44.9258C45.8457 44.876 45.9566 44.8027 46.05 44.71L47.05 43.71L48.05 44.71C48.1434 44.8027 48.2543 44.876 48.3761 44.9258C48.4979 44.9755 48.6284 45.0008 48.76 45H50V46.34C49.9992 46.4716 50.0245 46.6021 50.0742 46.7239C50.124 46.8457 50.1973 46.9566 50.29 47.05L51.29 48.05L50.29 48.93Z"/>
        <path d="M28 20C28 19.7348 27.8947 19.4804 27.7071 19.2929C27.5196 19.1054 27.2652 19 27 19H19.41L14.89 14.47C15.7606 13.2435 16.1387 11.7347 15.9496 10.2426C15.7604 8.75043 15.0177 7.38377 13.8686 6.41328C12.7195 5.4428 11.2478 4.93929 9.74506 5.0025C8.24231 5.0657 6.8181 5.69101 5.75456 6.75456C4.69101 7.8181 4.0657 9.24231 4.0025 10.7451C3.93929 12.2478 4.4428 13.7195 5.41328 14.8686C6.38377 16.0177 7.75043 16.7604 9.24257 16.9496C10.7347 17.1387 12.2435 16.7606 13.47 15.89L18 20.41V28C18 28.2652 18.1054 28.5196 18.2929 28.7071C18.4804 28.8947 18.7348 29 19 29C19.2652 29 19.5196 28.8947 19.7071 28.7071C19.8947 28.5196 20 28.2652 20 28V21H27C27.2652 21 27.5196 20.8947 27.7071 20.7071C27.8947 20.5196 28 20.2652 28 20ZM10 15C9.20888 15 8.43552 14.7654 7.77773 14.3259C7.11993 13.8864 6.60724 13.2616 6.30449 12.5307C6.00174 11.7998 5.92252 10.9956 6.07687 10.2196C6.23121 9.44372 6.61217 8.73099 7.17158 8.17158C7.73099 7.61217 8.44372 7.23121 9.21965 7.07687C9.99557 6.92252 10.7998 7.00174 11.5307 7.30449C12.2616 7.60724 12.8864 8.11993 13.3259 8.77773C13.7654 9.43552 14 10.2089 14 11C14 12.0609 13.5786 13.0783 12.8284 13.8284C12.0783 14.5786 11.0609 15 10 15Z"/>
        <path d="M6.83999 32.56C7.62954 32.14 8.25558 31.4675 8.61811 30.65C8.98064 29.8325 9.05877 28.9171 8.83999 28.05C8.96521 28.0395 9.08734 28.0056 9.19999 27.95L10.09 27.49L12.55 28.27C12.6491 28.3067 12.7544 28.3237 12.86 28.32C13.0968 28.3171 13.3249 28.2303 13.5036 28.0751C13.6824 27.9198 13.8003 27.7061 13.8363 27.4721C13.8723 27.2381 13.8241 26.9988 13.7003 26.797C13.5764 26.5952 13.385 26.4439 13.16 26.37L11.25 25.76L11.86 23.86C11.8853 23.6318 11.8313 23.4018 11.707 23.2087C11.5828 23.0157 11.3959 22.8712 11.1777 22.7997C10.9595 22.7281 10.7234 22.7338 10.5089 22.8158C10.2945 22.8978 10.1148 23.0511 9.99999 23.25L9.21999 25.71L8.32999 26.17C8.22092 26.2295 8.12284 26.3073 8.03999 26.4C7.5616 25.8422 6.93882 25.427 6.23999 25.2C5.73618 25.0271 5.2029 24.9565 4.67146 24.9925C4.14001 25.0284 3.6211 25.1702 3.14518 25.4094C2.66925 25.6486 2.2459 25.9805 1.89995 26.3855C1.55401 26.7905 1.29245 27.2606 1.13061 27.7681C0.96878 28.2755 0.909934 28.8102 0.957529 29.3408C1.00512 29.8713 1.1582 30.387 1.40778 30.8575C1.65736 31.3281 1.99841 31.7441 2.41092 32.0811C2.82343 32.4181 3.29909 32.6693 3.80999 32.82C4.82092 33.1411 5.91801 33.0476 6.85999 32.56H6.83999ZM3.09999 28.4C3.22727 27.9953 3.47994 27.6415 3.82148 27.3898C4.16302 27.1382 4.57575 27.0016 4.99999 27C5.2066 27.0005 5.41204 27.0308 5.60999 27.09C5.98614 27.2106 6.31815 27.4399 6.56416 27.7489C6.81016 28.058 6.95913 28.433 6.99229 28.8266C7.02545 29.2202 6.9413 29.6148 6.75047 29.9607C6.55964 30.3065 6.27067 30.5881 5.91999 30.77C5.68724 30.8946 5.43149 30.9704 5.1684 30.9928C4.90532 31.0151 4.64044 30.9836 4.38999 30.9C3.8891 30.7371 3.47268 30.3832 3.23115 29.9151C2.98963 29.447 2.9425 28.9026 3.09999 28.4Z"/>
        <path d="M49 25.3C48.282 25.472 47.627 25.8428 47.11 26.37C47.0404 26.267 46.948 26.1815 46.84 26.12L46 25.6L45.4 23.08C45.3691 22.9486 45.3127 22.8247 45.2339 22.7152C45.1552 22.6056 45.0556 22.5127 44.9409 22.4417C44.8262 22.3706 44.6987 22.3229 44.5656 22.3012C44.4324 22.2794 44.2963 22.2841 44.165 22.315C44.0337 22.3458 43.9097 22.4022 43.8002 22.481C43.6907 22.5598 43.5977 22.6593 43.5267 22.774C43.4557 22.8887 43.4079 23.0163 43.3862 23.1494C43.3644 23.2825 43.3691 23.4186 43.4 23.55L43.87 25.49L42 26C41.7348 26.0305 41.4925 26.1651 41.3266 26.3742C41.1606 26.5833 41.0845 26.8497 41.115 27.115C41.1455 27.3802 41.2801 27.6224 41.4892 27.7884C41.6983 27.9544 41.9648 28.0305 42.23 28C42.3097 28.0096 42.3903 28.0096 42.47 28L44.98 27.4L45.84 27.92C45.9432 27.9863 46.0589 28.0305 46.18 28.05C45.9339 28.711 45.8717 29.4264 46 30.12C46.2086 30.9927 46.7047 31.77 47.4084 32.3268C48.1121 32.8836 48.9826 33.1876 49.88 33.19C50.1964 33.1879 50.5116 33.151 50.82 33.08C51.3533 32.983 51.8614 32.7786 52.3133 32.4792C52.7652 32.1798 53.1516 31.7917 53.4489 31.3384C53.7462 30.8852 53.9483 30.3762 54.0429 29.8424C54.1375 29.3086 54.1226 28.7612 53.9991 28.2334C53.8756 27.7055 53.6461 27.2083 53.3246 26.7719C53.0031 26.3355 52.5962 25.969 52.1286 25.6946C51.6611 25.4203 51.1427 25.2438 50.6048 25.176C50.067 25.1081 49.521 25.1503 49 25.3ZM51 27.48C51.2282 27.6151 51.4273 27.7942 51.5857 28.007C51.7441 28.2198 51.8585 28.4619 51.9224 28.7194C51.9863 28.9768 51.9983 29.2443 51.9578 29.5065C51.9173 29.7686 51.8251 30.0201 51.6865 30.2462C51.5479 30.4723 51.3657 30.6686 51.1505 30.8237C50.9353 30.9788 50.6914 31.0895 50.433 31.1494C50.1746 31.2093 49.9069 31.2172 49.6454 31.1727C49.384 31.1281 49.134 31.032 48.91 30.89C48.6858 30.7526 48.491 30.5723 48.3365 30.3596C48.1821 30.1468 48.0711 29.9057 48.01 29.65C47.8868 29.1347 47.9732 28.5916 48.25 28.14C48.3874 27.9158 48.5676 27.7209 48.7804 27.5665C48.9932 27.4121 49.2343 27.3011 49.49 27.24C49.6463 27.2252 49.8037 27.2252 49.96 27.24C50.322 27.2243 50.6815 27.3072 51 27.48Z"/>
        <path d="M40.25 16.59C40.793 16.8624 41.3926 17.0029 42 17C42.4385 16.9994 42.874 16.9285 43.29 16.79C44.1443 16.5032 44.8767 15.9363 45.3685 15.1813C45.8604 14.4263 46.0829 13.5273 46 12.63C46.1088 12.6321 46.2171 12.6152 46.32 12.58L47.26 12.26L49.59 13.4C49.7241 13.4649 49.871 13.4991 50.02 13.5C50.2476 13.5032 50.4695 13.4288 50.649 13.2889C50.8285 13.149 50.955 12.952 51.0074 12.7305C51.0599 12.5091 51.0352 12.2763 50.9375 12.0708C50.8398 11.8652 50.6749 11.6991 50.47 11.6L48.67 10.72L49.55 8.91996C49.6369 8.69119 49.6369 8.43848 49.55 8.20971C49.4631 7.98093 49.2953 7.79197 49.0785 7.6786C48.8616 7.56522 48.6107 7.53532 48.3732 7.59455C48.1358 7.65377 47.9283 7.79802 47.79 7.99996L46.65 10.32L45.7 10.65C45.5832 10.6897 45.4747 10.7507 45.38 10.83C45.0022 10.2215 44.468 9.72559 43.8331 9.3941C43.1981 9.06261 42.4859 8.90768 41.7706 8.94548C41.0554 8.98329 40.3634 9.21245 39.767 9.60902C39.1706 10.0056 38.6916 10.555 38.38 11.2C37.9137 12.1522 37.8446 13.2505 38.1877 14.2537C38.5308 15.2569 39.2582 16.0828 40.21 16.55L40.25 16.59ZM40.25 12.12C40.4864 11.6479 40.8997 11.2885 41.4 11.12C41.5931 11.051 41.7953 11.0106 42 11C42.4176 11.001 42.8244 11.1327 43.1633 11.3766C43.5023 11.6205 43.7564 11.9643 43.89 12.36C43.9779 12.6067 44.0144 12.8689 43.9972 13.1303C43.98 13.3917 43.9095 13.6468 43.79 13.88C43.556 14.35 43.1466 14.7092 42.65 14.88C42.401 14.9647 42.1376 14.9996 41.8751 14.9824C41.6125 14.9652 41.3559 14.8964 41.12 14.78C40.648 14.5436 40.2885 14.1302 40.12 13.63C39.9512 13.1343 39.9835 12.5921 40.21 12.12H40.25Z"/>
        <path d="M36.07 48.82L31.55 49.58L30.37 48.74L30.2 47.74L31 46.62C31.0772 46.5132 31.1326 46.3921 31.1628 46.2637C31.1931 46.1354 31.1976 46.0023 31.1763 45.8722C31.1549 45.7421 31.108 45.6174 31.0383 45.5055C30.9685 45.3936 30.8774 45.2966 30.77 45.22L29.64 44.43L29.41 43.07C29.3879 42.94 29.3403 42.8156 29.2699 42.7041C29.1996 42.5925 29.1078 42.496 29 42.42C28.8955 42.3412 28.7756 42.2854 28.6481 42.2561C28.5206 42.2268 28.3883 42.2247 28.26 42.25L26.9 42.48L25.78 41.68C25.6725 41.6033 25.5509 41.5486 25.4222 41.5191C25.2934 41.4897 25.1601 41.486 25.03 41.5083C24.8998 41.5306 24.7754 41.5785 24.6638 41.6491C24.5522 41.7198 24.4558 41.8119 24.38 41.92L23.58 43.04L22.22 43.27C21.961 43.3171 21.731 43.4645 21.58 43.68C21.4247 43.8933 21.36 44.1593 21.4 44.42L21.64 45.78L20.84 47C20.6871 47.2152 20.6255 47.482 20.6686 47.7424C20.7117 48.0028 20.856 48.2356 21.07 48.39L22.2 49.19L22.43 50.55C22.4741 50.8111 22.6199 51.0441 22.8355 51.1978C23.051 51.3515 23.3188 51.4134 23.58 51.37L24.94 51.14L26.06 51.94C26.23 52.0587 26.4327 52.1216 26.64 52.12C26.8003 52.1209 26.9585 52.0832 27.1012 52.0101C27.2439 51.937 27.367 51.8307 27.46 51.7L28.26 50.58L29.21 50.41L30.39 51.25L31.15 55.77C31.1883 56.0067 31.3104 56.2216 31.4939 56.3758C31.6775 56.53 31.9103 56.6131 32.15 56.61H32.32C32.5811 56.566 32.814 56.4201 32.9677 56.2046C33.1214 55.989 33.1834 55.7212 33.14 55.46L32.47 51.52L36.41 50.85C36.6752 50.8063 36.9122 50.6589 37.0688 50.4405C37.2254 50.222 37.2887 49.9502 37.245 49.685C37.2012 49.4198 37.0539 49.1828 36.8354 49.0263C36.6169 48.8697 36.3452 48.8063 36.08 48.85L36.07 48.82ZM26.87 49.04L26.41 49.69L25.76 49.23C25.5912 49.1078 25.3884 49.0414 25.18 49.04H25.01L24.23 49.17L24.1 48.39C24.0779 48.26 24.0303 48.1356 23.9599 48.0241C23.8896 47.9125 23.7978 47.816 23.69 47.74L23.05 47.28L23.51 46.63C23.6617 46.4153 23.7228 46.1495 23.68 45.89L23.54 45.1L24.33 44.97C24.589 44.9229 24.8189 44.7756 24.97 44.56L25.43 43.92L26.08 44.38C26.2995 44.5295 26.5675 44.5902 26.83 44.55L27.61 44.42L27.74 45.2C27.7621 45.3301 27.8097 45.4544 27.88 45.566C27.9504 45.6775 28.0422 45.7741 28.15 45.85L28.79 46.31L28.33 46.95C28.1805 47.1695 28.1198 47.4375 28.16 47.7L28.27 48.32L28.18 48.4C28.18 48.4 28.18 48.47 28.18 48.51L27.55 48.61C27.4162 48.6259 27.287 48.6686 27.1702 48.7356C27.0533 48.8026 26.9512 48.8926 26.87 49V49.04Z"/>
        <path d="M14.68 39.86C14.7827 39.7775 14.8681 39.6755 14.9313 39.5598C14.9945 39.4442 15.0342 39.3172 15.0481 39.1862C15.062 39.0552 15.0499 38.9227 15.0125 38.7963C14.9751 38.67 14.9131 38.5523 14.83 38.45C14.6635 38.2455 14.4231 38.1149 14.1609 38.0868C13.8987 38.0587 13.636 38.1354 13.43 38.3L10.32 40.82L7.79999 37.7C7.62759 37.4945 7.38061 37.3658 7.11337 37.3424C6.84613 37.3189 6.58053 37.4026 6.37498 37.575C6.16944 37.7474 6.0408 37.9944 6.01736 38.2616C5.99392 38.5289 6.07759 38.7945 6.24998 39L9.12999 42.57L8.99999 44L8.25999 44.61L6.87999 44.46C6.74931 44.4461 6.61718 44.4582 6.49116 44.4954C6.36513 44.5326 6.24768 44.5944 6.14552 44.677C6.04336 44.7597 5.9585 44.8617 5.89578 44.9771C5.83305 45.0926 5.79371 45.2193 5.77999 45.35L5.63998 46.72L4.56999 47.59C4.46502 47.6703 4.37702 47.7707 4.31109 47.8853C4.24515 47.9998 4.20258 48.1263 4.18585 48.2575C4.16911 48.3886 4.17853 48.5217 4.21357 48.6492C4.24861 48.7766 4.30857 48.8959 4.38998 49L5.24999 50L5.10999 51.37C5.09039 51.5038 5.09812 51.6401 5.1327 51.7708C5.16728 51.9015 5.228 52.0238 5.31119 52.1303C5.39438 52.2369 5.49831 52.3255 5.61669 52.3907C5.73508 52.456 5.86547 52.4966 5.99999 52.51L7.36998 52.65L8.22998 53.72C8.31251 53.8227 8.41452 53.9081 8.53016 53.9713C8.64579 54.0345 8.77277 54.0742 8.9038 54.0881C9.03483 54.1021 9.16732 54.09 9.29366 54.0525C9.42 54.0151 9.5377 53.9531 9.63999 53.87L10.71 53L12.08 53.14C12.2111 53.1556 12.344 53.145 12.471 53.109C12.598 53.073 12.7166 53.0121 12.82 52.93C12.9219 52.846 13.0062 52.7427 13.068 52.626C13.1298 52.5093 13.1679 52.3815 13.18 52.25L13.33 50.88L14.4 50C14.5038 49.9169 14.5899 49.814 14.6535 49.6973C14.717 49.5805 14.7566 49.4522 14.77 49.32C14.7959 49.0572 14.7168 48.7947 14.55 48.59L13.68 47.52L13.83 46.15C13.8438 46.0193 13.8318 45.8872 13.7946 45.7612C13.7573 45.6351 13.6956 45.5177 13.613 45.4155C13.5303 45.3134 13.4283 45.2285 13.3129 45.1658C13.1974 45.1031 13.0707 45.0637 12.94 45.05L11.57 44.9L11 44.18L11.16 42.74L14.68 39.86ZM11.74 47L11.65 47.79C11.624 48.0528 11.7031 48.3153 11.87 48.52L12.37 49.14L11.75 49.64C11.6473 49.7219 11.5618 49.8232 11.4983 49.9382C11.4349 50.0532 11.3946 50.1795 11.38 50.31L11.3 51.1L10.51 51C10.2471 50.9741 9.98472 51.0531 9.77998 51.22L9.15999 51.72L8.65999 51.1C8.49279 50.8964 8.25202 50.7671 7.98998 50.74L7.19998 50.65L7.28998 49.86C7.31593 49.5972 7.23684 49.3347 7.06998 49.13L6.56998 48.51L7.18998 48C7.29192 47.916 7.37621 47.8127 7.438 47.696C7.49979 47.5793 7.53785 47.4515 7.54999 47.32L7.63999 46.53L8.42999 46.62C8.69282 46.6459 8.95525 46.5669 9.15999 46.4L9.64998 46H9.75999H9.88999L10.27 46.48C10.3531 46.5838 10.456 46.6699 10.5727 46.7335C10.6895 46.797 10.8177 46.8366 10.95 46.85L11.74 47Z"/>
        <path d="M23.14 15L24.41 15.53L24.93 16.81C25.0298 17.055 25.2227 17.2505 25.4664 17.3535C25.71 17.4566 25.9846 17.459 26.23 17.36L27.51 16.84L28.78 17.37C28.9025 17.4251 29.0357 17.4525 29.17 17.45C29.3663 17.4499 29.5582 17.3919 29.7218 17.2835C29.8854 17.175 30.0134 17.0208 30.09 16.84L30.63 15.57L31.9 15.05C32.0228 15.0009 32.1347 14.9278 32.2291 14.8351C32.3235 14.7424 32.3986 14.6319 32.45 14.51C32.5009 14.388 32.5271 14.2572 32.5271 14.125C32.5271 13.9928 32.5009 13.862 32.45 13.74L31.93 12.47L32.46 11.2C32.5632 10.956 32.5654 10.681 32.466 10.4354C32.3666 10.1897 32.1739 9.99361 31.93 9.89001L30.66 9.35001L30.3 8.50001L30.86 7.16001L35.1 5.43001C35.3297 5.32008 35.5087 5.12669 35.6007 4.88927C35.6927 4.65184 35.6906 4.38828 35.595 4.15232C35.4993 3.91635 35.3173 3.72577 35.0859 3.61942C34.8546 3.51308 34.5914 3.49898 34.35 3.58001L30.64 5.09001L29.13 1.39001C29.0301 1.14502 28.8373 0.949575 28.5936 0.846489C28.3499 0.743403 28.0754 0.741075 27.83 0.840014C27.585 0.939873 27.3896 1.13275 27.2865 1.37641C27.1834 1.62006 27.1811 1.89464 27.28 2.14001L29 6.39001L28.44 7.72001L27.55 8.09001L26.28 7.55001C26.158 7.49913 26.0272 7.47293 25.895 7.47293C25.7628 7.47293 25.632 7.49913 25.51 7.55001C25.2656 7.65149 25.0715 7.84566 24.97 8.09001L24.43 9.36001L23.16 9.88001C22.915 9.97987 22.7196 10.1728 22.6165 10.4164C22.5134 10.6601 22.5111 10.9346 22.61 11.18L23.13 12.46L22.6 13.73C22.5096 13.9705 22.5153 14.2366 22.6158 14.4731C22.7163 14.7096 22.9041 14.8982 23.14 15ZM25.14 12.05L24.84 11.31L25.57 11.01C25.8162 10.9131 26.014 10.7225 26.12 10.48L26.42 9.74001L27.16 10.05C27.4035 10.15 27.6765 10.15 27.92 10.05L28.51 9.81001C28.5376 9.83341 28.5678 9.85354 28.6 9.87001C28.6398 9.87483 28.6801 9.87483 28.72 9.87001L28.95 10.46C29.0515 10.7044 29.2456 10.8985 29.49 11L30.22 11.31L29.92 12.04C29.8691 12.162 29.8429 12.2928 29.8429 12.425C29.8429 12.5572 29.8691 12.688 29.92 12.81L30.22 13.54L29.49 13.84C29.3671 13.8892 29.2553 13.9622 29.1609 14.0549C29.0665 14.1476 28.9914 14.2581 28.94 14.38L28.64 15.11L27.9 14.8C27.6552 14.707 27.3848 14.707 27.14 14.8L26.41 15.1L26.11 14.36C26.0085 14.1157 25.8143 13.9215 25.57 13.82L24.84 13.51L25.14 12.78C25.2251 12.5585 25.2286 12.3139 25.15 12.09L25.14 12.05Z"/>
    </symbol>    

    <symbol id="service" viewBox="0 0 60 60">
        <path d="M17.27 15.6V18.6L18.7 19.02C19.4142 19.2356 20.1045 19.5238 20.76 19.88L22.08 20.6L23.14 19.54L24.22 18.45L26.47 20.7L25.38 21.79L24.32 22.84L25 24.19C25.3604 24.8435 25.6487 25.5342 25.86 26.25L26.28 27.69H29.28V30.86H26.28L25.9 32.3C25.676 33.0174 25.3742 33.7082 25 34.36L24.28 35.67L25.34 36.73L26.43 37.82L24.18 40.07L23.14 39L22.08 37.94L20.76 38.66C20.1062 39.0172 19.4154 39.3022 18.7 39.51L17.27 39.94V42.94H14.09V39.94L12.65 39.51C11.9346 39.3022 11.2438 39.0172 10.59 38.66L9.28 37.94L8.22 39L7.13 40.07L4.88 37.82L6 36.73L7.06 35.73L6.34 34.41C5.98703 33.7542 5.70221 33.0639 5.49 32.35L5 30.86H2V27.69H5L5.43 26.25C5.64221 25.5361 5.92703 24.8458 6.28 24.19L7 22.87L6 21.82L4.88 20.73L7.13 18.48L8.22 19.57L9.28 20.63L10.59 19.91C11.2438 19.5529 11.9346 19.2679 12.65 19.06L14.09 18.63V15.63H17.27V15.6ZM18.09 13.6H13.26C12.9497 13.6 12.6521 13.7233 12.4327 13.9427C12.2133 14.1621 12.09 14.4597 12.09 14.77V17.14C11.2371 17.3858 10.4125 17.721 9.63 18.14L8 16.48C7.77907 16.2614 7.48081 16.1388 7.17 16.1388C6.85919 16.1388 6.56093 16.2614 6.34 16.48L2.88 19.9C2.66138 20.1209 2.53875 20.4192 2.53875 20.73C2.53875 21.0408 2.66138 21.3391 2.88 21.56L4.56 23.23C4.13668 24.0105 3.8013 24.8355 3.56 25.69H1.17C0.859697 25.69 0.562103 25.8133 0.342685 26.0327C0.123268 26.2521 0 26.5497 0 26.86L0 31.69C0 32.0003 0.123268 32.2979 0.342685 32.5173C0.562103 32.7367 0.859697 32.86 1.17 32.86H3.54C3.7813 33.7145 4.11668 34.5395 4.54 35.32L2.88 37C2.66138 37.2209 2.53875 37.5192 2.53875 37.83C2.53875 38.1408 2.66138 38.4391 2.88 38.66L6.3 42.07C6.52093 42.2886 6.81919 42.4113 7.13 42.4113C7.44081 42.4113 7.73907 42.2886 7.96 42.07L9.63 40.39C10.4105 40.8133 11.2355 41.1487 12.09 41.39V43.76C12.0804 43.9194 12.1036 44.0791 12.1581 44.2293C12.2126 44.3794 12.2973 44.5168 12.4069 44.633C12.5165 44.7491 12.6488 44.8416 12.7955 44.9048C12.9422 44.9679 13.1003 45.0003 13.26 45H18.09C18.2445 45.0013 18.3977 44.972 18.5408 44.9138C18.6839 44.8556 18.8141 44.7697 18.9238 44.6609C19.0335 44.5521 19.1206 44.4227 19.18 44.2801C19.2394 44.1375 19.27 43.9845 19.27 43.83V41.41C20.1205 41.1665 20.942 40.8312 21.72 40.41L23.39 42.09C23.6109 42.3086 23.9092 42.4313 24.22 42.4313C24.5308 42.4313 24.8291 42.3086 25.05 42.09L28.47 38.67C28.5795 38.5613 28.6663 38.432 28.7256 38.2895C28.7849 38.1471 28.8154 37.9943 28.8154 37.84C28.8154 37.6857 28.7849 37.533 28.7256 37.3905C28.6663 37.2481 28.5795 37.1188 28.47 37.01L26.8 35.32C27.2191 34.5375 27.5542 33.713 27.8 32.86H30.17C30.4803 32.86 30.7779 32.7367 30.9973 32.5173C31.2167 32.2979 31.34 32.0003 31.34 31.69V26.86C31.34 26.5497 31.2167 26.2521 30.9973 26.0327C30.7779 25.8133 30.4803 25.69 30.17 25.69H27.82C27.5697 24.8387 27.2347 24.0145 26.82 23.23L28.49 21.56C28.7086 21.3391 28.8313 21.0408 28.8313 20.73C28.8313 20.4192 28.7086 20.1209 28.49 19.9L25.07 16.48C24.8491 16.2614 24.5508 16.1388 24.24 16.1388C23.9292 16.1388 23.6309 16.2614 23.41 16.48L21.74 18.15C20.9602 17.7327 20.1391 17.3976 19.29 17.15V14.77C19.29 14.6155 19.2594 14.4626 19.2 14.32C19.1406 14.1773 19.0535 14.0479 18.9438 13.9391C18.8341 13.8304 18.7039 13.7444 18.5608 13.6862C18.4177 13.628 18.2645 13.5987 18.11 13.6H18.09Z"/>
        <path d="M45.91 30.65V33.65L47.35 34.07C48.0651 34.2831 48.7557 34.5714 49.41 34.93L50.72 35.64L51.78 34.59L52.87 33.5L55.12 35.75L54 36.86L53 37.92L53.72 39.24C54.0747 39.895 54.3596 40.5855 54.57 41.3L55 42.73H58V45.91H55L54.57 47.35C54.3578 48.0639 54.073 48.7542 53.72 49.41L53 50.72L54 51.78L55.09 52.87L52.84 55.12L51.78 54L50.72 53L49.41 53.72C48.7534 54.0713 48.0633 54.356 47.35 54.57L45.91 55V58H42.73V55L41.3 54.57C40.5861 54.3578 39.8958 54.073 39.24 53.72L37.92 53L36.86 54L35.78 55.09L33.53 52.84L34.62 51.75L35.68 50.69L35 49.41C34.6396 48.7565 34.3513 48.0658 34.14 47.35L33.72 45.91H30.72V42.73H33.72L34.14 41.3C34.3513 40.5843 34.6396 39.8935 35 39.24L35.72 37.92L34.66 36.87L33.57 35.78L35.82 33.53L36.91 34.62L37.96 35.68L39.24 35C39.8935 34.6396 40.5842 34.3513 41.3 34.14L42.73 33.72V30.72H45.91V30.65ZM46.74 28.72H41.91C41.7555 28.7187 41.6023 28.748 41.4592 28.8062C41.3161 28.8644 41.1859 28.9504 41.0762 29.0592C40.9665 29.1679 40.8794 29.2974 40.82 29.44C40.7606 29.5826 40.73 29.7355 40.73 29.89V32.26C39.8809 32.5076 39.0598 32.8427 38.28 33.26L36.61 31.59C36.3891 31.3714 36.0908 31.2488 35.78 31.2488C35.4692 31.2488 35.1709 31.3714 34.95 31.59L31.53 35C31.4206 35.1088 31.3337 35.2381 31.2744 35.3805C31.2151 35.523 31.1846 35.6757 31.1846 35.83C31.1846 35.9843 31.2151 36.1371 31.2744 36.2795C31.3337 36.422 31.4206 36.5513 31.53 36.66L33.2 38.33C32.7827 39.1099 32.4476 39.9309 32.2 40.78H29.82C29.6655 40.78 29.5126 40.8106 29.3699 40.87C29.2273 40.9295 29.0979 41.0165 28.9891 41.1262C28.8804 41.2359 28.7944 41.3661 28.7362 41.5092C28.678 41.6523 28.6487 41.8055 28.65 41.96V46.79C28.65 47.1003 28.7733 47.3979 28.9927 47.6173C29.2121 47.8368 29.5097 47.96 29.82 47.96H32.19C32.4358 48.813 32.771 49.6375 33.19 50.42L31.53 52C31.3114 52.221 31.1888 52.5192 31.1888 52.83C31.1888 53.1408 31.3114 53.4391 31.53 53.66L35 57.12C35.2209 57.3386 35.5192 57.4613 35.83 57.4613C36.1408 57.4613 36.4391 57.3386 36.66 57.12L38.33 55.44C39.108 55.8612 39.9295 56.1965 40.78 56.44V58.81C40.7746 59.117 40.89 59.4137 41.1014 59.6364C41.3128 59.859 41.6032 59.9896 41.91 60H46.74C47.0503 60 47.3479 59.8768 47.5673 59.6573C47.7867 59.4379 47.91 59.1403 47.91 58.83V56.46C48.7645 56.2187 49.5895 55.8833 50.37 55.46L52 57.12C52.2209 57.3386 52.5192 57.4613 52.83 57.4613C53.1408 57.4613 53.4391 57.3386 53.66 57.12L57.08 53.7C57.1895 53.5913 57.2763 53.462 57.3356 53.3195C57.3949 53.1771 57.4254 53.0243 57.4254 52.87C57.4254 52.7157 57.3949 52.563 57.3356 52.4205C57.2763 52.2781 57.1895 52.1488 57.08 52.04L55.4 50.37C55.8233 49.5895 56.1587 48.7645 56.4 47.91H58.77C58.9286 47.9182 59.0872 47.8939 59.2362 47.8388C59.3851 47.7837 59.5213 47.6988 59.6364 47.5893C59.7515 47.4798 59.8431 47.3481 59.9056 47.2021C59.9681 47.0561 60.0002 46.8989 60 46.74V41.91C60.0013 41.7555 59.972 41.6023 59.9138 41.4592C59.8556 41.3161 59.7697 41.1859 59.6609 41.0762C59.5521 40.9665 59.4227 40.8795 59.2801 40.82C59.1375 40.7606 58.9845 40.73 58.83 40.73H56.46C56.2165 39.8795 55.8812 39.058 55.46 38.28L57.14 36.61C57.2495 36.5013 57.3363 36.372 57.3956 36.2295C57.4549 36.0871 57.4854 35.9343 57.4854 35.78C57.4854 35.6257 57.4549 35.473 57.3956 35.3305C57.3363 35.1881 57.2495 35.0588 57.14 34.95L53.7 31.53C53.4791 31.3114 53.1808 31.1888 52.87 31.1888C52.5592 31.1888 52.2609 31.3114 52.04 31.53L50.37 33.2C49.5875 32.781 48.7629 32.4458 47.91 32.2V29.82C47.91 29.5097 47.7867 29.2121 47.5673 28.9927C47.3479 28.7733 47.0503 28.65 46.74 28.65V28.72Z"/>
        <path d="M39.8 2.25001L40.35 3.58001L40.89 4.88001L42.29 4.82001H43.07L44.47 4.88001L45 3.58001L45.55 2.25001L48.5 3.47001L48 4.80001L47.46 6.10001L48.46 7.04001L49.01 7.59001L49.95 8.59001L51.25 8.05001L52.58 7.50001L53.8 10.44L52.45 11L51.16 11.54L51.22 12.94C51.22 13.2 51.22 13.46 51.22 13.72L51.16 15.12L52.46 15.65L53.79 16.21L52.57 19.14L51.24 18.59L49.94 18.05L49 19.05C48.82 19.24 48.64 19.43 48.45 19.6L47.45 20.55L48 21.91L48.55 23.24L45.61 24.46L45 23.13L44.46 21.84L43.06 21.9H42.28L40.88 21.83L40.35 23.13L39.79 24.46L36.86 23.24L37.41 21.91L38 20.62L37 19.67C36.81 19.49 36.62 19.31 36.45 19.12L35.5 18.12L34.21 18.65L32.88 19.2L31.66 16.27L32.99 15.71L34.29 15.18L34.22 13.78C34.22 13.52 34.22 13.26 34.22 13L34.29 11.6L32.91 11L31.58 10.45L32.8 7.54001L34.13 8.09001L35.42 8.63001L36.37 7.63001C36.55 7.44001 36.73 7.26001 36.92 7.08001L37.92 6.14001L37.38 4.84001L36.83 3.51001L39.8 2.25001ZM45.11 1.45599e-05C44.8739 -0.0060084 44.6416 0.0595422 44.4434 0.188049C44.2453 0.316556 44.0907 0.502004 44 0.720015L43.13 2.82001H42.13L41.33 0.720015C41.2722 0.578378 41.1867 0.449703 41.0785 0.341525C40.9703 0.233347 40.8416 0.147841 40.7 0.0900146C40.5574 0.0306029 40.4045 1.45599e-05 40.25 1.45599e-05C40.0956 0.000786149 39.9428 0.0313448 39.8 0.0900146L35.34 1.94001C35.0531 2.05926 34.8237 2.28509 34.7 2.57001C34.6406 2.7126 34.61 2.86554 34.61 3.02001C34.61 3.17448 34.6406 3.32743 34.7 3.47001L35.57 5.57001C35.33 5.78001 35.11 6.01001 34.89 6.24001L32.8 5.38001C32.6572 5.32135 32.5044 5.29079 32.35 5.29001C32.1198 5.28787 31.8943 5.35423 31.7019 5.48066C31.5096 5.6071 31.3593 5.78788 31.27 6.00001L29.41 10.47C29.294 10.758 29.2961 11.08 29.4159 11.3664C29.5357 11.6528 29.7635 11.8804 30.05 12L32.15 12.87C32.1283 13.203 32.1283 13.537 32.15 13.87L30.05 14.73C29.9068 14.788 29.777 14.8747 29.6687 14.9847C29.5603 15.0948 29.4757 15.2259 29.42 15.37C29.3606 15.5126 29.33 15.6655 29.33 15.82C29.33 15.9745 29.3606 16.1274 29.42 16.27L31.27 20.73C31.3573 20.9451 31.5066 21.1294 31.6989 21.2594C31.8912 21.3894 32.1179 21.4592 32.35 21.46C32.5044 21.4592 32.6572 21.4287 32.8 21.37L34.89 20.5C35.11 20.74 35.33 20.96 35.57 21.18L34.7 23.27C34.6412 23.4125 34.6111 23.5651 34.6114 23.7192C34.6118 23.8733 34.6426 24.0258 34.7021 24.168C34.7615 24.3102 34.8485 24.4392 34.958 24.5476C35.0675 24.6561 35.1973 24.7419 35.34 24.8L39.8 26.65C39.9428 26.7087 40.0956 26.7392 40.25 26.74C40.4045 26.74 40.5574 26.7094 40.7 26.65C40.8441 26.5943 40.9752 26.5097 41.0853 26.4013C41.1953 26.293 41.282 26.1632 41.34 26.02L42.2 23.92H42.69H43.16L44 26C44.0888 26.2132 44.2388 26.3954 44.431 26.5235C44.6232 26.6516 44.849 26.72 45.08 26.72C45.2349 26.7253 45.389 26.6945 45.53 26.63L50 24.77C50.1425 24.7137 50.272 24.6287 50.3803 24.5204C50.4887 24.412 50.5737 24.2825 50.63 24.14C50.6894 23.9974 50.72 23.8445 50.72 23.69C50.72 23.5355 50.6894 23.3826 50.63 23.24L49.77 21.15C50 20.93 50.23 20.71 50.44 20.47L52.54 21.34C52.6828 21.3987 52.8356 21.4292 52.99 21.43C53.2218 21.4279 53.4479 21.3575 53.6399 21.2277C53.832 21.0979 53.9816 20.9143 54.07 20.7L56 16.24C56.1197 15.9522 56.1206 15.6286 56.0026 15.3401C55.8846 15.0515 55.6571 14.8214 55.37 14.7L53.27 13.84C53.2917 13.507 53.2917 13.173 53.27 12.84L55.37 11.97C55.6467 11.8506 55.8666 11.629 55.984 11.3514C56.1013 11.0739 56.1071 10.7617 56 10.48L54.1 6.00001C54.0083 5.78549 53.8546 5.60327 53.6586 5.47675C53.4626 5.35024 53.2332 5.28521 53 5.29001C52.8456 5.29079 52.6928 5.32135 52.55 5.38001L50.45 6.24001C50.24 6.01001 50.01 5.78001 49.78 5.57001L50.64 3.47001C50.6988 3.32757 50.7289 3.17492 50.7285 3.02081C50.7282 2.86671 50.6974 2.7142 50.6379 2.57203C50.5784 2.42986 50.4915 2.30085 50.382 2.19239C50.2725 2.08393 50.1427 1.99816 50 1.94001L45.56 0.0900146C45.4177 0.029551 45.2646 -0.00108059 45.11 1.45599e-05Z"/>
        <path d="M42.68 10.67C43.2124 10.6681 43.7335 10.8241 44.1772 11.1185C44.6209 11.4129 44.9672 11.8323 45.1723 12.3237C45.3775 12.815 45.4322 13.3562 45.3295 13.8787C45.2269 14.4011 44.9715 14.8814 44.5957 15.2586C44.2198 15.6358 43.7406 15.893 43.2185 15.9976C42.6964 16.1022 42.155 16.0495 41.6629 15.8462C41.1708 15.6429 40.7501 15.2981 40.454 14.8556C40.158 14.413 40 13.8925 40 13.36C40 12.6483 40.282 11.9656 40.7843 11.4615C41.2866 10.9573 41.9683 10.6727 42.68 10.67ZM42.68 8.67004C41.7524 8.67004 40.8456 8.94511 40.0744 9.46045C39.3031 9.9758 38.702 10.7083 38.347 11.5653C37.992 12.4222 37.8991 13.3652 38.0801 14.275C38.2611 15.1848 38.7078 16.0205 39.3637 16.6764C40.0196 17.3323 40.8552 17.779 41.765 17.9599C42.6748 18.1409 43.6178 18.048 44.4748 17.693C45.3318 17.3381 46.0642 16.7369 46.5796 15.9657C47.0949 15.1944 47.37 14.2876 47.37 13.36C47.37 12.1162 46.8759 10.9233 45.9963 10.0437C45.1168 9.16417 43.9239 8.67004 42.68 8.67004Z"/>
        <path d="M15.68 25.23C16.4711 25.23 17.2445 25.4646 17.9023 25.9041C18.5601 26.3436 19.0728 26.9683 19.3755 27.6992C19.6783 28.4302 19.7575 29.2344 19.6032 30.0103C19.4488 30.7863 19.0678 31.499 18.5084 32.0584C17.949 32.6178 17.2363 32.9988 16.4604 33.1531C15.6844 33.3075 14.8802 33.2282 14.1493 32.9255C13.4184 32.6227 12.7937 32.1101 12.3541 31.4523C11.9146 30.7945 11.68 30.0211 11.68 29.23C11.68 28.1691 12.1014 27.1517 12.8516 26.4016C13.6017 25.6514 14.6191 25.23 15.68 25.23ZM15.68 23.23C14.0768 23.23 12.5392 23.8669 11.4055 25.0005C10.2719 26.1342 9.63501 27.6717 9.63501 29.275C9.63501 30.8782 10.2719 32.4158 11.4055 33.5494C12.5392 34.6831 14.0768 35.32 15.68 35.32C17.2832 35.32 18.8208 34.6831 19.9545 33.5494C21.0881 32.4158 21.725 30.8782 21.725 29.275C21.725 27.6717 21.0881 26.1342 19.9545 25.0005C18.8208 23.8669 17.2832 23.23 15.68 23.23Z"/>
        <path d="M44.32 38.92C45.388 38.92 46.432 39.2367 47.3201 39.8301C48.2081 40.4235 48.9002 41.2668 49.3089 42.2536C49.7176 43.2403 49.8246 44.326 49.6162 45.3735C49.4079 46.421 48.8936 47.3832 48.1384 48.1384C47.3832 48.8936 46.421 49.4079 45.3735 49.6163C44.326 49.8246 43.2402 49.7177 42.2535 49.309C41.2668 48.9003 40.4234 48.2082 39.83 47.3201C39.2367 46.4321 38.92 45.3881 38.92 44.32C38.9226 42.8887 39.4924 41.5167 40.5045 40.5046C41.5167 39.4925 42.8886 38.9227 44.32 38.92ZM44.32 36.92C42.3574 36.92 40.4752 37.6997 39.0874 39.0875C37.6996 40.4752 36.92 42.3574 36.92 44.32C36.92 46.2826 37.6996 48.1649 39.0874 49.5526C40.4752 50.9404 42.3574 51.72 44.32 51.72C46.2826 51.72 48.1648 50.9404 49.5526 49.5526C50.9403 48.1649 51.72 46.2826 51.72 44.32C51.72 42.3574 50.9403 40.4752 49.5526 39.0875C48.1648 37.6997 46.2826 36.92 44.32 36.92Z"/>
    </symbol>

    <symbol id="soft" viewBox="0 0 60 44">
        <path d="M59 34H58V5C58 3.67392 57.4732 2.40215 56.5355 1.46447C55.5979 0.526784 54.3261 0 53 0H7C5.67392 0 4.40215 0.526784 3.46447 1.46447C2.52678 2.40215 2 3.67392 2 5V34H1C0.734784 34 0.48043 34.1054 0.292893 34.2929C0.105357 34.4804 0 34.7348 0 35L0 39C0 40.3261 0.526784 41.5979 1.46447 42.5355C2.40215 43.4732 3.67392 44 5 44H55C56.3261 44 57.5979 43.4732 58.5355 42.5355C59.4732 41.5979 60 40.3261 60 39V35C60 34.7348 59.8946 34.4804 59.7071 34.2929C59.5196 34.1054 59.2652 34 59 34ZM4 5C4 4.20435 4.31607 3.44129 4.87868 2.87868C5.44129 2.31607 6.20435 2 7 2H53C53.7957 2 54.5587 2.31607 55.1213 2.87868C55.6839 3.44129 56 4.20435 56 5V34H4V5ZM58 39C58 39.7957 57.6839 40.5587 57.1213 41.1213C56.5587 41.6839 55.7957 42 55 42H5C4.20435 42 3.44129 41.6839 2.87868 41.1213C2.31607 40.5587 2 39.7957 2 39V36H58V39Z"/>
        <path d="M25 40H35C35.2652 40 35.5196 39.8946 35.7071 39.7071C35.8946 39.5196 36 39.2652 36 39C36 38.7348 35.8946 38.4804 35.7071 38.2929C35.5196 38.1054 35.2652 38 35 38H25C24.7348 38 24.4804 38.1054 24.2929 38.2929C24.1054 38.4804 24 38.7348 24 39C24 39.2652 24.1054 39.5196 24.2929 39.7071C24.4804 39.8946 24.7348 40 25 40Z"/>
    </symbol>

    <symbol id="expendable" viewBox="0 0 54 43">
        <path d="M53 12H50V8H51C51.2652 8 51.5196 7.89464 51.7071 7.70711C51.8946 7.51957 52 7.26522 52 7V1C52 0.734784 51.8946 0.48043 51.7071 0.292893C51.5196 0.105357 51.2652 0 51 0H39C38.7348 0 38.4804 0.105357 38.2929 0.292893C38.1054 0.48043 38 0.734784 38 1V7C38 7.26522 38.1054 7.51957 38.2929 7.70711C38.4804 7.89464 38.7348 8 39 8H40V12H32V8H33C33.2652 8 33.5196 7.89464 33.7071 7.70711C33.8946 7.51957 34 7.26522 34 7V1C34 0.734784 33.8946 0.48043 33.7071 0.292893C33.5196 0.105357 33.2652 0 33 0H21C20.7348 0 20.4804 0.105357 20.2929 0.292893C20.1054 0.48043 20 0.734784 20 1V7C20 7.26522 20.1054 7.51957 20.2929 7.70711C20.4804 7.89464 20.7348 8 21 8H22V12H14V8H15C15.2652 8 15.5196 7.89464 15.7071 7.70711C15.8946 7.51957 16 7.26522 16 7V1C16 0.734784 15.8946 0.48043 15.7071 0.292893C15.5196 0.105357 15.2652 0 15 0H3C2.73478 0 2.48043 0.105357 2.29289 0.292893C2.10536 0.48043 2 0.734784 2 1V7C2 7.26522 2.10536 7.51957 2.29289 7.70711C2.48043 7.89464 2.73478 8 3 8H4V12H1C0.734784 12 0.48043 12.1054 0.292893 12.2929C0.105357 12.4804 0 12.7348 0 13V17C0 17.2652 0.105357 17.5196 0.292893 17.7071C0.48043 17.8946 0.734784 18 1 18H4V22.85C4 22.99 4 23.12 4 23.26C4 23.4 4 23.33 4 23.37L8 41.22C8 41.4852 8.10536 41.7396 8.29289 41.9271C8.48043 42.1146 8.73478 42.22 9 42.22C9.26522 42.22 9.51957 42.1146 9.70711 41.9271C9.89464 41.7396 10 41.4852 10 41.22L14 23.37C14 23.37 14 23.3 14 23.26C14 23.22 14 22.99 14 22.85V18H22V22.72C21.985 22.9431 21.985 23.1669 22 23.39C22 23.39 22 23.46 22 23.49L26 41.22C26.0508 41.4456 26.1782 41.6466 26.3605 41.7888C26.5429 41.931 26.7688 42.0056 27 42C27.2312 42.0056 27.4571 41.931 27.6395 41.7888C27.8218 41.6466 27.9492 41.4456 28 41.22L32 23.49C32 23.49 32 23.42 32 23.39C32.015 23.1669 32.015 22.9431 32 22.72V18H40V22.72C39.985 22.9431 39.985 23.1669 40 23.39C40 23.39 40 23.46 40 23.49L44 41.22C44 41.4852 44.1054 41.7396 44.2929 41.9271C44.4804 42.1146 44.7348 42.22 45 42.22C45.2652 42.22 45.5196 42.1146 45.7071 41.9271C45.8946 41.7396 46 41.4852 46 41.22L50 23.49C50 23.49 50 23.42 50 23.39C50.015 23.1669 50.015 22.9431 50 22.72V18H53C53.2652 18 53.5196 17.8946 53.7071 17.7071C53.8946 17.5196 54 17.2652 54 17V13C54 12.7348 53.8946 12.4804 53.7071 12.2929C53.5196 12.1054 53.2652 12 53 12ZM40 2H50V6H40V2ZM42 8H48V12H42V8ZM22 2H32V6H22V2ZM24 8H30V12H24V8ZM4 2H14V6H4V2ZM6 8H12V12H6V8ZM12 22.85C12.0062 22.8998 12.0062 22.9502 12 23L9 36.41L6 23C5.99463 22.9535 5.99463 22.9065 6 22.86V18H12V22.85ZM30 22.72C30 22.85 30 22.98 30 23.11L27 36.42L24 23.11C24 22.98 24 22.85 24 22.72V18H30V22.72ZM48 22.72C48 22.85 48 22.98 48 23.11L45 36.42L42 23.11C42 22.98 42 22.85 42 22.72V18H48V22.72ZM52 16H2V14H52V16Z"/>
    </symbol>

</svg>

